<?xml version="1.0" standalone="no"?>
<!DOCTYPE svg PUBLIC "-//W3C//DTD SVG 20010904//EN"
 "http://www.w3.org/TR/2001/REC-SVG-20010904/DTD/svg10.dtd">
<svg version="1.0" xmlns="http://www.w3.org/2000/svg"
 width="1024.000000pt" height="1024.000000pt" viewBox="206 200 600 600"
 preserveAspectRatio="xMidYMid meet">
<metadata>
Created by potrace 1.16, written by Peter Selinger 2001-2019
</metadata>
<g transform="translate(0.000000,1024.000000) scale(0.100000,-0.100000)"
fill="#e95f30" stroke="none">
<path d="M4965 7614 c-211 -33 -417 -137 -566 -287 l-76 -77 -44 15 c-306 108
-663 25 -889 -206 -393 -401 -199 -1105 332 -1204 44 -8 39 20 68 -355 23
-291 27 -320 42 -320 5 0 47 11 92 25 692 210 1661 214 2365 10 84 -24 126
-33 131 -25 3 6 14 126 24 268 9 141 20 284 23 318 l6 61 71 18 c735 190 686
1211 -69 1427 -114 33 -361 33 -479 0 l-78 -22 -84 79 c-135 128 -279 207
-459 252 -78 20 -335 34 -410 23z m368 -313 c242 -63 453 -255 526 -482 27
-83 96 -106 145 -48 30 35 33 74 12 161 l-13 57 26 10 c286 114 639 -61 700
-347 69 -324 -188 -572 -593 -572 -61 0 -107 -4 -111 -10 -4 -6 -16 -113 -27
-238 -11 -125 -21 -228 -22 -229 -1 -2 -67 11 -146 27 -476 98 -1031 90 -1503
-22 -71 -16 -130 -28 -132 -26 -4 4 -25 227 -25 269 l0 34 118 33 c230 64 375
155 356 224 -16 56 -43 58 -212 15 -520 -129 -850 -8 -913 336 -87 472 529
717 924 367 73 -64 77 -66 125 -49 29 10 51 46 46 77 -1 6 -2 21 -3 31 0 10
-17 42 -36 71 -46 68 -46 67 33 141 190 178 454 239 725 170z"/>
<path d="M2905 5967 c-389 -129 -439 -698 -95 -1070 92 -100 200 -156 330
-171 l55 -7 28 -82 c40 -114 143 -363 174 -415 35 -60 24 -61 -35 -3 -68 67
-131 158 -200 287 -64 121 -55 115 -194 129 l-68 7 0 -32 c0 -147 142 -467
304 -685 592 -795 2021 -1069 3087 -590 539 241 947 716 1054 1225 19 89 23
84 -72 70 -126 -19 -117 -13 -174 -119 -82 -152 -237 -362 -246 -334 -2 5 23
65 55 134 33 68 76 167 96 219 20 52 45 115 55 140 l17 45 75 7 c297 30 406
193 474 711 27 210 17 275 -50 303 -77 32 -108 -1 -149 -156 -88 -336 -136
-420 -192 -334 -19 28 -15 48 61 309 65 222 68 263 20 311 -73 73 -129 19
-204 -201 -109 -317 -123 -345 -166 -345 -64 0 -59 48 25 270 103 268 103 340
4 340 -77 0 -112 -45 -248 -316 -189 -377 -190 -562 -2 -750 l65 -65 -65 -129
c-35 -72 -64 -133 -64 -136 0 -3 -32 -64 -72 -135 l-71 -129 -76 -29 c-708
-269 -1971 -268 -2620 3 l-76 31 -96 190 c-52 105 -109 221 -126 259 l-32 69
39 45 c307 348 -25 1127 -485 1139 -63 2 -115 -2 -140 -10z m-109 -517 c71
-265 242 -441 472 -484 87 -17 92 -20 55 -39 -274 -138 -690 340 -586 674 l17
54 8 -55 c5 -30 20 -98 34 -150z m1384 -1539 c534 -109 1244 -122 1778 -35 47
7 40 -6 -30 -53 -504 -335 -1439 -293 -1878 86 -43 37 -46 37 130 2z"/>
<path d="M4867 5200 c-427 -26 -861 -122 -1049 -233 -310 -183 -167 -466 280
-551 87 -16 91 -8 16 34 -163 91 -212 211 -127 309 282 330 1904 338 2256 12
107 -99 59 -233 -121 -339 -78 -45 -9 -39 163 15 369 114 423 380 110 536
-322 160 -958 250 -1528 217z"/>
</g>
</svg>
